<?xml version="1.0" encoding="utf-8"?>
<!-- Generator: Adobe Illustrator 22.0.0, SVG Export Plug-In . SVG Version: 6.00 Build 0)  -->
<svg version="1.1" xmlns="http://www.w3.org/2000/svg" xmlns:xlink="http://www.w3.org/1999/xlink" x="0px" y="0px"
	 viewBox="0 0 256 256" style="enable-background:new 0 0 256 256;" xml:space="preserve">
<style type="text/css">
	.st0{display:none;}
	.st1{display:inline;}
	.st2{fill:none;stroke:#6B1D1D;stroke-width:0.5;stroke-miterlimit:10;}
	.st3{fill:#3A312A;}
	.st4{fill:#87796F;}
	.st5{fill:#D5DE58;}
	.st6{fill:#695B51;}
	.st7{fill:#FCE8CB;}
	.st8{fill:#F16C7A;}
	.st9{fill:#8AC6DD;}
	.st10{fill:#DECAAD;}
	.st11{fill:#D6DF58;}
	.st12{fill-rule:evenodd;clip-rule:evenodd;fill:#FCE8CB;}
	.st13{fill:#F5978A;}
	.st14{fill:#D7E057;}
	.st15{fill-rule:evenodd;clip-rule:evenodd;fill:#87796F;}
	.st16{fill:#6CA8BF;}
	.st17{fill:#B9C239;}
	.st18{fill:#D34E5C;}
	.st19{fill:#FAE6CA;}
	.st20{fill:#F8E4C8;}
	.st21{fill:#8AC5DC;}
	.st22{fill:#EF6D7A;}
	.st23{fill:#EB6E7A;}
	.st24{fill:#89C4DB;}
	.st25{fill-rule:evenodd;clip-rule:evenodd;fill:#F16C7A;}
	.st26{fill:#F7E3C7;}
	.st27{fill:#F6E2C6;}
	.st28{fill:#ED6E7A;}
	.st29{fill:#8AC3DA;}
	.st30{fill:#D5DC57;}
	.st31{fill-rule:evenodd;clip-rule:evenodd;fill:#D7E057;}
	.st32{fill-rule:evenodd;clip-rule:evenodd;fill:#F8E4C8;}
	.st33{fill:#D4DB56;}
	.st34{fill:#F59689;}
	.st35{fill:#DDC9AC;}
	.st36{fill:#D24E5C;}
	.st37{fill:#6A5C52;}
	.st38{fill:#6CA6BE;}
	.st39{fill:#B8C136;}
	.st40{fill-rule:evenodd;clip-rule:evenodd;fill:#FAE6CA;}
</style>
<g id="Layer_2" class="st0">
	<g class="st1">
		<g>
			<line class="st2" x1="0" y1="4.829" x2="256" y2="4.829"/>
			<line class="st2" x1="0" y1="16.56" x2="256" y2="16.56"/>
			<line class="st2" x1="0" y1="28.29" x2="256" y2="28.29"/>
			<line class="st2" x1="0" y1="40.021" x2="256" y2="40.021"/>
			<line class="st2" x1="0" y1="51.751" x2="256" y2="51.751"/>
			<line class="st2" x1="0" y1="63.482" x2="256" y2="63.482"/>
			<line class="st2" x1="0" y1="75.213" x2="256" y2="75.213"/>
			<line class="st2" x1="0" y1="86.943" x2="256" y2="86.943"/>
			<line class="st2" x1="0" y1="98.674" x2="256" y2="98.674"/>
			<line class="st2" x1="0" y1="110.404" x2="256" y2="110.404"/>
			<line class="st2" x1="0" y1="122.135" x2="256" y2="122.135"/>
			<line class="st2" x1="0" y1="133.865" x2="256" y2="133.865"/>
			<line class="st2" x1="0" y1="145.596" x2="256" y2="145.596"/>
			<line class="st2" x1="0" y1="157.326" x2="256" y2="157.326"/>
			<line class="st2" x1="0" y1="169.057" x2="256" y2="169.057"/>
			<line class="st2" x1="0" y1="180.788" x2="256" y2="180.788"/>
			<line class="st2" x1="0" y1="192.518" x2="256" y2="192.518"/>
			<line class="st2" x1="0" y1="204.249" x2="256" y2="204.249"/>
			<line class="st2" x1="0" y1="215.979" x2="256" y2="215.979"/>
			<line class="st2" x1="0" y1="227.71" x2="256" y2="227.71"/>
			<line class="st2" x1="0" y1="239.44" x2="256" y2="239.44"/>
			<line class="st2" x1="0" y1="251.171" x2="256" y2="251.171"/>
		</g>
		<g>
			<line class="st2" x1="251.171" y1="0" x2="251.171" y2="256"/>
			<line class="st2" x1="239.44" y1="0" x2="239.44" y2="256"/>
			<line class="st2" x1="227.71" y1="0" x2="227.71" y2="256"/>
			<line class="st2" x1="215.979" y1="0" x2="215.979" y2="256"/>
			<line class="st2" x1="204.249" y1="0" x2="204.249" y2="256"/>
			<line class="st2" x1="192.518" y1="0" x2="192.518" y2="256"/>
			<line class="st2" x1="180.787" y1="0" x2="180.787" y2="256"/>
			<line class="st2" x1="169.057" y1="0" x2="169.057" y2="256"/>
			<line class="st2" x1="157.326" y1="0" x2="157.326" y2="256"/>
			<line class="st2" x1="145.596" y1="0" x2="145.596" y2="256"/>
			<line class="st2" x1="133.865" y1="0" x2="133.865" y2="256"/>
			<line class="st2" x1="122.135" y1="0" x2="122.135" y2="256"/>
			<line class="st2" x1="110.404" y1="0" x2="110.404" y2="256"/>
			<line class="st2" x1="98.674" y1="0" x2="98.674" y2="256"/>
			<line class="st2" x1="86.943" y1="0" x2="86.943" y2="256"/>
			<line class="st2" x1="75.212" y1="0" x2="75.212" y2="256"/>
			<line class="st2" x1="63.482" y1="0" x2="63.482" y2="256"/>
			<line class="st2" x1="51.751" y1="0" x2="51.751" y2="256"/>
			<line class="st2" x1="40.021" y1="0" x2="40.021" y2="256"/>
			<line class="st2" x1="28.29" y1="0" x2="28.29" y2="256"/>
			<line class="st2" x1="16.56" y1="0" x2="16.56" y2="256"/>
			<line class="st2" x1="4.829" y1="0" x2="4.829" y2="256"/>
		</g>
	</g>
</g>
<g id="Layer_1">
	<g>
		<path class="st4" d="M16.5,120.958v42.572c0,9.447,7.658,17.105,17.105,17.105h188.789c9.447,0,17.106-7.658,17.106-17.105V33.241
			c0-9.447-7.658-17.106-17.106-17.106H33.605c-9.447,0-17.105,7.658-17.105,17.106v74.468V120.958z"/>
		<path class="st3" d="M222.394,182.135H33.605C23.346,182.135,15,173.789,15,163.53v-42.572c0-0.829,0.671-1.5,1.5-1.5
			c0.829,0,1.5,0.671,1.5,1.5v42.572c0,8.605,7,15.605,15.605,15.605h188.789c8.605,0,15.606-7.001,15.606-15.605V33.241
			c0-8.605-7.001-15.606-15.606-15.606H33.605C25,17.635,18,24.636,18,33.241v74.468c0,0.829-0.671,1.5-1.5,1.5
			c-0.829,0-1.5-0.671-1.5-1.5V33.241c0-10.259,8.346-18.606,18.605-18.606h188.789c10.259,0,18.606,8.347,18.606,18.606V163.53
			C241,173.789,232.654,182.135,222.394,182.135z"/>
		<path class="st14" d="M86.201,28.635h-45.17c-6.583,0-11.92,5.337-11.92,11.92v115.66c0,6.583,5.337,11.92,11.92,11.92h173.938
			c6.583,0,11.92-5.337,11.92-11.92V40.555c0-6.583-5.337-11.92-11.92-11.92H99.799H86.201z"/>
		<path class="st3" d="M214.969,169.635H41.031c-7.4,0-13.42-6.02-13.42-13.42V40.555c0-7.4,6.02-13.42,13.42-13.42h45.17
			c0.829,0,1.5,0.671,1.5,1.5c0,0.829-0.671,1.5-1.5,1.5h-45.17c-5.746,0-10.42,4.674-10.42,10.42v115.66
			c0,5.746,4.674,10.42,10.42,10.42h173.938c5.746,0,10.42-4.674,10.42-10.42V40.555c0-5.746-4.674-10.42-10.42-10.42H99.799
			c-0.829,0-1.5-0.671-1.5-1.5c0-0.829,0.671-1.5,1.5-1.5h115.17c7.4,0,13.42,6.02,13.42,13.42v115.66
			C228.389,163.615,222.369,169.635,214.969,169.635z"/>
		<rect x="113.687" y="180.635" class="st4" width="28.625" height="35.593"/>
		<path class="st3" d="M142.312,217.729h-28.625c-0.829,0-1.5-0.671-1.5-1.5v-35.593c0-0.829,0.671-1.5,1.5-1.5h28.625
			c0.829,0,1.5,0.671,1.5,1.5v35.593C143.812,217.057,143.141,217.729,142.312,217.729z M115.187,214.729h25.625v-32.593h-25.625
			V214.729z"/>
		<path class="st4" d="M171.703,239.635c0-12.927-10.48-23.407-23.407-23.407h-40.593c-12.927,0-23.407,10.48-23.407,23.407H171.703
			z"/>
		<path class="st3" d="M171.703,241.135H84.297c-0.829,0-1.5-0.671-1.5-1.5c0-13.733,11.173-24.907,24.907-24.907h40.593
			c13.733,0,24.907,11.173,24.907,24.907C173.203,240.464,172.532,241.135,171.703,241.135z M85.848,238.135h84.305
			c-0.773-11.382-10.281-20.407-21.856-20.407h-40.593C96.128,217.729,86.621,226.753,85.848,238.135z"/>
		<path class="st14" d="M47.671,203.469c0,0,3.408,12.659,13.222,13.247c0,0-13.1,4.525-13.321,14.202
			c0,0-2.579-13.572-12.925-14.059C34.647,216.859,46.697,215.033,47.671,203.469z"/>
		<path class="st3" d="M47.57,232.417c-0.712,0-1.335-0.506-1.472-1.217c-0.024-0.124-2.495-12.418-11.523-12.842
			c-0.77-0.037-1.387-0.651-1.427-1.421c-0.04-0.77,0.511-1.445,1.273-1.56c0.441-0.069,10.895-1.817,11.755-12.033
			c0.061-0.725,0.634-1.301,1.359-1.367c0.735-0.06,1.393,0.399,1.583,1.102c0.032,0.116,3.259,11.626,11.863,12.141
			c0.714,0.043,1.298,0.584,1.396,1.292c0.098,0.708-0.319,1.388-0.994,1.623c-0.121,0.042-12.118,4.311-12.313,12.819
			c-0.018,0.767-0.61,1.396-1.375,1.46C47.655,232.415,47.612,232.417,47.57,232.417z M39.83,216.688
			c3.878,1.969,6.23,5.746,7.587,8.876c2.026-4.021,5.942-6.787,8.949-8.427c-4.135-1.842-6.783-5.651-8.334-8.723
			C46.239,212.774,42.76,215.283,39.83,216.688z"/>
		<path class="st14" d="M25.972,220.45c0,0,2.411,8.954,9.352,9.369c0,0-9.266,3.201-9.422,10.046c0,0-1.824-9.6-9.142-9.944
			C16.76,229.921,25.284,228.629,25.972,220.45z"/>
		<path class="st3" d="M25.9,241.365c-0.713,0-1.337-0.507-1.472-1.22c-0.016-0.081-1.704-8.441-7.739-8.726
			c-0.77-0.037-1.387-0.651-1.427-1.421c-0.04-0.771,0.511-1.445,1.274-1.561c0.296-0.047,7.364-1.243,7.942-8.114
			c0.061-0.726,0.635-1.303,1.36-1.368c0.731-0.062,1.392,0.399,1.582,1.102l0,0c0.021,0.079,2.228,7.92,7.994,8.265
			c0.714,0.043,1.299,0.585,1.396,1.293c0.098,0.709-0.32,1.388-0.996,1.622c-0.081,0.028-8.282,2.952-8.413,8.662
			c-0.018,0.768-0.611,1.398-1.376,1.461C25.983,241.363,25.942,241.365,25.9,241.365z M21.382,229.837
			c2.107,1.333,3.524,3.394,4.447,5.28c1.376-2.232,3.515-3.872,5.365-4.973c-2.287-1.27-3.884-3.35-4.941-5.224
			C25.079,227.208,23.238,228.796,21.382,229.837z"/>
		<path class="st14" d="M25.972,193.792c0,0,2.411,8.954,9.352,9.37c0,0-9.266,3.201-9.422,10.046c0,0-1.824-9.6-9.142-9.944
			C16.76,203.263,25.284,201.972,25.972,193.792z"/>
		<path class="st3" d="M25.901,214.708c-0.714,0-1.337-0.507-1.473-1.22c-0.016-0.081-1.704-8.442-7.739-8.726
			c-0.77-0.037-1.387-0.651-1.427-1.421c-0.04-0.771,0.511-1.445,1.274-1.561c0.296-0.047,7.364-1.243,7.942-8.113
			c0.061-0.726,0.635-1.303,1.36-1.368c0.731-0.063,1.392,0.4,1.582,1.102l0,0c0.021,0.079,2.228,7.919,7.994,8.264
			c0.714,0.043,1.299,0.584,1.396,1.293c0.098,0.709-0.319,1.388-0.996,1.622c-0.081,0.028-8.282,2.953-8.413,8.662
			c-0.018,0.768-0.611,1.398-1.376,1.461C25.983,214.706,25.942,214.708,25.901,214.708z M21.382,203.18
			c2.107,1.333,3.523,3.395,4.447,5.28c1.376-2.232,3.515-3.872,5.365-4.973c-2.287-1.269-3.884-3.35-4.941-5.223
			C25.079,200.55,23.238,202.139,21.382,203.18z"/>
		<path class="st3" d="M113,51.086H51c-0.829,0-1.5-0.671-1.5-1.5c0-0.829,0.671-1.5,1.5-1.5h62c0.829,0,1.5,0.671,1.5,1.5
			C114.5,50.415,113.829,51.086,113,51.086z"/>
		<path class="st3" d="M113,70.991H51c-0.829,0-1.5-0.671-1.5-1.5c0-0.829,0.671-1.5,1.5-1.5h62c0.829,0,1.5,0.671,1.5,1.5
			C114.5,70.32,113.829,70.991,113,70.991z"/>
		<path class="st3" d="M113,90.896H51c-0.829,0-1.5-0.671-1.5-1.5c0-0.829,0.671-1.5,1.5-1.5h62c0.829,0,1.5,0.671,1.5,1.5
			C114.5,90.225,113.829,90.896,113,90.896z"/>
		<path class="st3" d="M113,110.801H51c-0.829,0-1.5-0.671-1.5-1.5c0-0.829,0.671-1.5,1.5-1.5h62c0.829,0,1.5,0.671,1.5,1.5
			C114.5,110.129,113.829,110.801,113,110.801z"/>
		<path class="st3" d="M113,130.595H51c-0.829,0-1.5-0.671-1.5-1.5s0.671-1.5,1.5-1.5h62c0.829,0,1.5,0.671,1.5,1.5
			S113.829,130.595,113,130.595z"/>
		<path class="st3" d="M113,150.5H51c-0.829,0-1.5-0.671-1.5-1.5s0.671-1.5,1.5-1.5h62c0.829,0,1.5,0.671,1.5,1.5
			S113.829,150.5,113,150.5z"/>
		<circle class="st19" cx="169.75" cy="78.75" r="35.25"/>
		<path class="st3" d="M169.75,115.5c-20.264,0-36.75-16.486-36.75-36.75S149.486,42,169.75,42s36.75,16.486,36.75,36.75
			S190.014,115.5,169.75,115.5z M169.75,45C151.14,45,136,60.14,136,78.75s15.14,33.75,33.75,33.75s33.75-15.14,33.75-33.75
			S188.36,45,169.75,45z"/>
		<path class="st8" d="M192.954,74.341l-31.13-17.973c-3.394-1.959-7.636,0.49-7.636,4.409v35.946c0,3.919,4.242,6.368,7.636,4.409
			l31.13-17.973C196.348,81.199,196.348,76.301,192.954,74.341z"/>
		<path class="st3" d="M159.279,103.324c-1.131,0-2.263-0.297-3.295-0.893c-2.064-1.191-3.295-3.325-3.295-5.708V60.777
			c0-2.383,1.232-4.517,3.295-5.708c2.062-1.19,4.527-1.192,6.59,0l31.13,17.973l0,0c2.064,1.191,3.295,3.325,3.295,5.707
			s-1.231,4.516-3.295,5.707l-31.13,17.973C161.543,103.026,160.411,103.324,159.279,103.324z M159.279,57.181
			c-0.617,0-1.233,0.163-1.795,0.487c-1.124,0.649-1.795,1.812-1.795,3.11v35.945c0,1.298,0.671,2.461,1.795,3.11
			c1.124,0.649,2.467,0.648,3.59,0l31.13-17.973c1.124-0.649,1.795-1.812,1.795-3.11s-0.671-2.46-1.795-3.11l-31.13-17.973
			C160.513,57.343,159.896,57.181,159.279,57.181z"/>
		<path class="st9" d="M222.407,171.268v6.784c-1.908-0.525-3.912-0.793-5.98-0.793h-5.98v-5.991
			c0-21.669-17.639-39.309-39.309-39.309c-21.68,0-39.309,17.64-39.309,39.309v5.991h-5.98c-2.068,0-4.083,0.268-5.991,0.793v-6.784
			c0-28.27,23.009-51.268,51.279-51.268C199.409,120,222.407,142.998,222.407,171.268z"/>
		<path class="st3" d="M222.407,179.552c-0.133,0-0.267-0.018-0.398-0.054c-1.783-0.491-3.661-0.739-5.582-0.739h-5.98
			c-0.829,0-1.5-0.671-1.5-1.5v-5.991c0-20.848-16.961-37.809-37.809-37.809c-20.848,0-37.809,16.961-37.809,37.809v5.991
			c0,0.829-0.671,1.5-1.5,1.5h-5.98c-1.929,0-3.81,0.248-5.592,0.739c-0.45,0.125-0.935,0.031-1.307-0.253
			c-0.372-0.284-0.591-0.725-0.591-1.193v-6.784c0-29.096,23.676-52.768,52.779-52.768c29.097,0,52.769,23.672,52.769,52.768v6.784
			c0,0.468-0.219,0.909-0.591,1.193C223.052,179.446,222.732,179.552,222.407,179.552z M171.139,121.5
			c-27.448,0-49.779,22.326-49.779,49.768v4.9c1.46-0.272,2.963-0.41,4.49-0.41h4.48v-4.491c0-22.502,18.307-40.809,40.809-40.809
			c22.502,0,40.809,18.307,40.809,40.809v4.491h4.48c1.521,0,3.021,0.138,4.48,0.41v-4.9
			C220.907,143.826,198.581,121.5,171.139,121.5z"/>
		<path class="st22" d="M125.846,239.635h-1.543c-11.89,0-21.53-9.639-21.53-21.53v-19.322c0-11.891,9.639-21.53,21.53-21.53h1.543
			V239.635z"/>
		<path class="st3" d="M125.847,241.135h-1.543c-12.699,0-23.03-10.331-23.03-23.03v-19.322c0-12.699,10.331-23.03,23.03-23.03
			h1.543c0.829,0,1.5,0.671,1.5,1.5v62.381C127.347,240.464,126.675,241.135,125.847,241.135z M124.304,178.754
			c-11.044,0-20.03,8.985-20.03,20.03v19.322c0,11.044,8.985,20.03,20.03,20.03h0.043v-59.381H124.304z"/>
		<path class="st22" d="M125.846,239.635h8.139c4.472,0,8.097-3.625,8.097-8.097v-46.187c0-4.472-3.625-8.097-8.097-8.097h-8.139
			V239.635z"/>
		<path class="st3" d="M133.986,241.135h-8.139c-0.829,0-1.5-0.671-1.5-1.5v-62.381c0-0.829,0.671-1.5,1.5-1.5h8.139
			c5.292,0,9.597,4.305,9.597,9.597v46.187C143.582,236.83,139.277,241.135,133.986,241.135z M127.347,238.135h6.639
			c3.637,0,6.597-2.96,6.597-6.597v-46.187c0-3.638-2.959-6.597-6.597-6.597h-6.639V238.135z"/>
		<path class="st22" d="M216.427,177.254h1.543c11.891,0,21.53,9.639,21.53,21.53v19.322c0,11.891-9.639,21.53-21.53,21.53h-1.543
			V177.254z"/>
		<path class="st3" d="M217.97,241.135h-1.543c-0.829,0-1.5-0.671-1.5-1.5v-62.381c0-0.829,0.671-1.5,1.5-1.5h1.543
			c12.699,0,23.03,10.331,23.03,23.03v19.322C241,230.804,230.669,241.135,217.97,241.135z M217.927,238.135h0.043
			c11.044,0,20.03-8.985,20.03-20.03v-19.322c0-11.044-8.985-20.03-20.03-20.03h-0.043V238.135z"/>
		<path class="st22" d="M216.427,177.254h-8.139c-4.472,0-8.097,3.625-8.097,8.097v46.187c0,4.472,3.625,8.097,8.097,8.097h8.139
			V177.254z"/>
		<path class="st3" d="M216.427,241.135h-8.139c-5.292,0-9.597-4.305-9.597-9.597v-46.187c0-5.292,4.305-9.597,9.597-9.597h8.139
			c0.829,0,1.5,0.671,1.5,1.5v62.381C217.927,240.464,217.256,241.135,216.427,241.135z M208.288,178.754
			c-3.637,0-6.597,2.959-6.597,6.597v46.187c0,3.638,2.96,6.597,6.597,6.597h6.639v-59.381H208.288z"/>
		<path class="st17" d="M214.97,30.14h-15c5.74,0,10.42,4.67,10.42,10.42v95.48c6.56,7.31,11.12,16.46,12.79,26.56
			c1.38-1.76,2.21-3.98,2.21-6.38V40.56C225.39,34.81,220.71,30.14,214.97,30.14z"/>
	</g>
</g>
</svg>
