<svg xmlns="http://www.w3.org/2000/svg" viewBox="0 0 512 512"><g id="E-learning_on_phone"><path d="M147.7474,398.0528a15.8333,15.8333,0,1,0,15.8335,15.833A15.8508,15.8508,0,0,0,147.7474,398.0528Zm0,21.6665a5.8333,5.8333,0,1,1,5.8335-5.8335A5.84,5.84,0,0,1,147.7474,419.7193Z"/><path d="M98.4384,152.9337H74.184a5,5,0,0,0-5,5V182.188a5,5,0,0,0,5,5H98.4384a5,5,0,0,0,5-5V157.9337A5,5,0,0,0,98.4384,152.9337Zm-5,24.2543H79.184V162.9337H93.4384Z"/><path d="M98.4384,213.3956H74.184a5,5,0,0,0-5,5V242.65a5,5,0,0,0,5,5H98.4384a5,5,0,0,0,5-5V218.3956A5,5,0,0,0,98.4384,213.3956Zm-5,24.2544H79.184V223.3956H93.4384Z"/><path d="M98.4384,273.8575H74.184a5,5,0,0,0-5,5v24.2544a5,5,0,0,0,5,5H98.4384a5,5,0,0,0,5-5V278.8575A5,5,0,0,0,98.4384,273.8575Zm-5,24.2544H79.184V283.8575H93.4384Z"/><path d="M201.1014,285.9849H127.9349a5,5,0,0,0,0,10h73.1665a5,5,0,0,0,0-10Z"/><path d="M201.1014,311.49H127.9349a5,5,0,0,0,0,10h73.1665a5,5,0,1,0,0-10Z"/><path d="M473.755,54.5291a18.9945,18.9945,0,0,0-11.84-6.31c-2.72-.35-5.84-.72-9.3-1.07v-3.59a13.0683,13.0683,0,0,0-10.9-12.92,243.2991,243.2991,0,0,0-42.71-3.35v-5.34a12.0927,12.0927,0,0,0-12.07-12.08h-22a32.5716,32.5716,0,0,0-32.54,32.53v1.6a71.2263,71.2263,0,0,0-17.31,15.5,9.3349,9.3349,0,0,1-14.7,0c-14.14-17.71-36.95-28.25-67.79-31.32-24.27-2.41-47.28.51-58.83,2.46a13.0715,13.0715,0,0,0-10.91,12.92v3.59c-3.46.35-6.58.72-9.3,1.07a19.0606,19.0606,0,0,0-16.58,18.85v5.52H61.205a27.7276,27.7276,0,0,0-27.7,27.69v320.51a27.73,27.73,0,0,0,27.7,27.7H201.4471l19.7165,13.4616a22.9335,22.9335,0,0,1,9.5718,14.5238l.0024.0109a22.96,22.96,0,0,1,.4341,4.419v16.2265a5,5,0,0,0,10,0V480.9044c0-.1448-.0114-.2881-.0132-.4327h12.8857a5,5,0,1,0,0-10H239.4666a32.9189,32.9189,0,0,0-12.6644-16.7793l-27.9931-19.1132a10.318,10.318,0,0,1-3.3648-13.1822,10.2955,10.2955,0,0,1,14.1514-4.33l16.8506,9.3169a5,5,0,0,0,7.4194-4.376V316.7891a9.0508,9.0508,0,1,1,18.1016,0V406.878a5,5,0,1,0,10,0V374.8892a9.8,9.8,0,0,1,19.6,0V406.878a5,5,0,1,0,10,0V374.8892a9.8,9.8,0,0,1,19.6,0V406.878a5,5,0,0,0,10,0V374.8892a9.8,9.8,0,0,1,19.6,0v45.7114a46.8085,46.8085,0,0,1-16.4234,35.6343,37.5567,37.5567,0,0,0-13.1767,28.59v12.3056a5,5,0,0,0,10,0V484.8253a27.5687,27.5687,0,0,1,9.6728-20.9878,56.7957,56.7957,0,0,0,19.9273-43.2369V374.8892a19.7724,19.7724,0,0,0-34.6-13.1074,19.7111,19.7111,0,0,0-29.6,0,19.6866,19.6866,0,0,0-24.5824-4.0836V266.9145a118.8008,118.8008,0,0,1,23.29,13.3146,37.46,37.46,0,0,0,44.92,0c20.26-15.04,58.93-32.02,128.08-27.52a18.9919,18.9919,0,0,0,20.22-18.96V67.0692A18.9826,18.9826,0,0,0,473.755,54.5291Zm-300.9-10.97a3.1024,3.1024,0,0,1,2.58-3.06c20.04-3.39,87.73-11.59,117.14,25.24a19.3653,19.3653,0,0,0,10.1626,6.6791V212.3a5,5,0,0,0,10,0V72.4184a19.3591,19.3591,0,0,0,10.1672-6.6793,59.2332,59.2332,0,0,1,9.49-9.44v33.36a9.5192,9.5192,0,0,0,6.81,9.16,9.6863,9.6863,0,0,0,2.8.41,9.4776,9.4776,0,0,0,7.93-4.28l5.91-8.87,5.9,8.87a9.5683,9.5683,0,0,0,17.54-5.29v-23.62a5,5,0,1,0-10,0v22.19l-9.28-13.95a4.9922,4.9922,0,0,0-8.33,0l-9.28,13.95v-45.83a22.5371,22.5371,0,0,1,22.54-22.53h22a2.0763,2.0763,0,0,1,2.07,2.08v5.73q-3.045.195-6.12.5-4.695.465-9.13,1.17a.0187.0187,0,0,0-.03,0c-.21.03-.42.06-.62.1a4.9975,4.9975,0,0,0-3.87,4.87v14.4a5,5,0,1,0,10,0v-10.04a178.5908,178.5908,0,0,1,22.74-1.39,235.4871,235.4871,0,0,1,38.07,3.21,3.0937,3.0937,0,0,1,2.57,3.06v170.52a3.065,3.065,0,0,1-1,2.28,3.0979,3.0979,0,0,1-2.4.81c-72.04-6.43-109.48,15.81-125.38,29.63a9.5458,9.5458,0,0,1-1.0973.8135V230.0484a5,5,0,0,0-10,0v17.5662a9.5855,9.5855,0,0,1-1.1027-.8155c-13.96-12.14-44.53-30.77-100.58-30.77-7.76,0-16.02.36-24.79,1.14a3.098,3.098,0,0,1-2.4-.81,3.0305,3.0305,0,0,1-1.01-2.28Zm-111.65,39.03h75.77v22.7436c-.0208,0-.04-.0061-.0607-.0061H43.505v-5.0476A17.7111,17.7111,0,0,1,61.205,82.5892ZM242.9165,297.7383a19.0727,19.0727,0,0,0-19.0508,19.0508V413.53l-9.4316-5.2148a20.2849,20.2849,0,0,0-26.6156,29.1276q.5.741,1.0671,1.4406c-.1084-.1327-.2257-.2589-.3305-.3941H61.205a17.72,17.72,0,0,1-17.7-17.7V389.0953H201.1014a5,5,0,0,0,0-10H43.505V115.3267h93.4093c.0208,0,.04-.0058.0607-.0061V233.7491a18.9919,18.9919,0,0,0,20.22,18.96c41.8973-2.726,72.5887,2.4358,94.79,10.2691v37.0608A18.9322,18.9322,0,0,0,242.9165,297.7383ZM468.495,233.7491a8.9835,8.9835,0,0,1-9.57,8.98c-72.18-4.7-113.09,13.43-134.69,29.47a27.51,27.51,0,0,1-33,0c-19.23-14.28-53.77-30.22-112.08-30.22-7.16,0-14.71.24-22.61.75a8.9984,8.9984,0,0,1-9.57-8.98V67.0692a9.0334,9.0334,0,0,1,7.86-8.93c2.38-.31,5.06-.63,8.02-.94v156.88a13.12,13.12,0,0,0,14.3,13.05c68.35-6.1,103.22,14.43,117.92,27.22a19.4008,19.4008,0,0,0,25.32,0c14.7-12.79,49.57-33.32,117.93-27.22a13.1041,13.1041,0,0,0,14.29-13.05V57.199c2.96.31,5.64.63,8.02.94a9.0334,9.0334,0,0,1,7.86,8.93Z"/><path d="M344.1351,136.8067a5,5,0,0,0,3.1621-1.123c.9038-.7349,22.6178-17.8765,63.3727-7.1631a5,5,0,0,0,2.542-9.6719c-46.0055-12.0923-71.2281,8.2505-72.2794,9.1221a4.9961,4.9961,0,0,0,3.2026,8.8359Z"/><path d="M344.1273,165.7505a4.98,4.98,0,0,0,3.189-1.1513c.2178-.1807,22.2647-17.95,63.3536-7.1475a5,5,0,0,0,2.542-9.6719c-46.004-12.0913-71.2281,8.25-72.2794,9.1221a5,5,0,0,0,3.1948,8.8486Z"/><path d="M344.1273,194.6817a4.9792,4.9792,0,0,0,3.189-1.1514c.2178-.1806,22.2647-17.9487,63.3536-7.1474a5,5,0,0,0,2.542-9.6719c-46.004-12.0933-71.2281,8.251-72.2794,9.1221a5,5,0,0,0,3.1948,8.8486Z"/><path d="M197.6166,124.9556a5.0029,5.0029,0,0,0,6.1069,3.565c40.7217-10.7071,62.4356,6.4028,63.37,7.1616a5,5,0,0,0,6.3667-7.7114c-1.0512-.8721-26.2744-21.2139-72.2788-9.1221A5,5,0,0,0,197.6166,124.9556Z"/><path d="M201.1815,147.78a5,5,0,0,0,2.542,9.6719c40.6919-10.7,62.4067,6.3794,63.3682,7.16a5,5,0,0,0,6.3686-7.71C272.4086,156.03,247.183,135.6866,201.1815,147.78Z"/><path d="M201.1815,176.711a5,5,0,0,0,2.542,9.6719c40.6919-10.7,62.4067,6.3794,63.3682,7.16a5,5,0,0,0,6.3686-7.71C272.4086,184.961,247.183,164.6172,201.1815,176.711Z"/></g></svg>